# xmcd
#
# Track frame offsets:
#	150
#	13215
#	21925
#	33032
#	43382
#	54675
#	67792
#	79102
#	89829
#	101475
#	113130
#	125035
#	134572
#	144365
#
# Disc length: 2047 seconds
#
# Revision: 0
# Processed by: cddbd v1.5.1PL2 Copyright (c) Steve Scherf et al.
# Submitted via: dBpowerAMP V4.0
#
DISCID=c607fd0e
DTITLE=Patsy Cline - Walkin'  after midnight CD 3
DYEAR=2000
DGENRE=Country
TTITLE0=Life's railway to heaven
TTITLE1=Ain't no wheels on this skip
TTITLE2=Stop the world(and let me off)
TTITLE3=Walking dream
TTITLE4=Cry not for me
TTITLE5=If I could see the world(through the eyes of a child)
TTITLE6=Just out of reach(of my two open arms)
TTITLE7=I can see an angel
TTITLE8=Let the teardrops fall
TTITLE9=Never no more
TTITLE10=If I could only stay asleep
TTITLE11=I'm moving alone
TTITLE12=I'm blue again
TTITLE13=Love,love,love me honey
EXTD=
EXTT0=
EXTT1=
EXTT2=
EXTT3=
EXTT4=
EXTT5=
EXTT6=
EXTT7=
EXTT8=
EXTT9=
EXTT10=
EXTT11=
EXTT12=
EXTT13=
PLAYORDER=
